<svg id="visual" viewBox="0 0 900 600" width="900" height="600" xmlns="http://www.w3.org/2000/svg" xmlns:xlink="http://www.w3.org/1999/xlink" version="1.1"><rect x="0" y="0" width="900" height="600" fill="#001220"></rect><path d="M0 315L13.7 311.5C27.3 308 54.7 301 82 282C109.3 263 136.7 232 163.8 218C191 204 218 207 245.2 218.3C272.3 229.7 299.7 249.3 327 265.7C354.3 282 381.7 295 409 294.3C436.3 293.7 463.7 279.3 491 286C518.3 292.7 545.7 320.3 573 320.5C600.3 320.7 627.7 293.3 654.8 285.2C682 277 709 288 736.2 292.5C763.3 297 790.7 295 818 296C845.3 297 872.7 301 886.3 303L900 305L900 601L886.3 601C872.7 601 845.3 601 818 601C790.7 601 763.3 601 736.2 601C709 601 682 601 654.8 601C627.7 601 600.3 601 573 601C545.7 601 518.3 601 491 601C463.7 601 436.3 601 409 601C381.7 601 354.3 601 327 601C299.7 601 272.3 601 245.2 601C218 601 191 601 163.8 601C136.7 601 109.3 601 82 601C54.7 601 27.3 601 13.7 601L0 601Z" fill="#fa7268"></path><path d="M0 293L13.7 297.2C27.3 301.3 54.7 309.7 82 314C109.3 318.3 136.7 318.7 163.8 309.2C191 299.7 218 280.3 245.2 280.7C272.3 281 299.7 301 327 310.3C354.3 319.7 381.7 318.3 409 318C436.3 317.7 463.7 318.3 491 330.8C518.3 343.3 545.7 367.7 573 367.5C600.3 367.3 627.7 342.7 654.8 341.2C682 339.7 709 361.3 736.2 356.3C763.3 351.3 790.7 319.7 818 301.7C845.3 283.7 872.7 279.3 886.3 277.2L900 275L900 601L886.3 601C872.7 601 845.3 601 818 601C790.7 601 763.3 601 736.2 601C709 601 682 601 654.8 601C627.7 601 600.3 601 573 601C545.7 601 518.3 601 491 601C463.7 601 436.3 601 409 601C381.7 601 354.3 601 327 601C299.7 601 272.3 601 245.2 601C218 601 191 601 163.8 601C136.7 601 109.3 601 82 601C54.7 601 27.3 601 13.7 601L0 601Z" fill="#f16367"></path><path d="M0 316L13.7 331.8C27.3 347.7 54.7 379.3 82 380.8C109.3 382.3 136.7 353.7 163.8 347C191 340.3 218 355.7 245.2 363.7C272.3 371.7 299.7 372.3 327 367C354.3 361.7 381.7 350.3 409 342.5C436.3 334.7 463.7 330.3 491 331.3C518.3 332.3 545.7 338.7 573 340.8C600.3 343 627.7 341 654.8 354.7C682 368.3 709 397.7 736.2 406C763.3 414.3 790.7 401.7 818 402.8C845.3 404 872.7 419 886.3 426.5L900 434L900 601L886.3 601C872.7 601 845.3 601 818 601C790.7 601 763.3 601 736.2 601C709 601 682 601 654.8 601C627.7 601 600.3 601 573 601C545.7 601 518.3 601 491 601C463.7 601 436.3 601 409 601C381.7 601 354.3 601 327 601C299.7 601 272.3 601 245.2 601C218 601 191 601 163.8 601C136.7 601 109.3 601 82 601C54.7 601 27.3 601 13.7 601L0 601Z" fill="#e85467"></path><path d="M0 389L13.7 388.5C27.3 388 54.7 387 82 395.8C109.3 404.7 136.7 423.3 163.8 437.3C191 451.3 218 460.7 245.2 454.3C272.3 448 299.7 426 327 416C354.3 406 381.7 408 409 406.7C436.3 405.3 463.7 400.7 491 402.3C518.3 404 545.7 412 573 412.2C600.3 412.3 627.7 404.7 654.8 402.5C682 400.3 709 403.7 736.2 403.7C763.3 403.7 790.7 400.3 818 402.5C845.3 404.7 872.7 412.3 886.3 416.2L900 420L900 601L886.3 601C872.7 601 845.3 601 818 601C790.7 601 763.3 601 736.2 601C709 601 682 601 654.8 601C627.7 601 600.3 601 573 601C545.7 601 518.3 601 491 601C463.7 601 436.3 601 409 601C381.7 601 354.3 601 327 601C299.7 601 272.3 601 245.2 601C218 601 191 601 163.8 601C136.7 601 109.3 601 82 601C54.7 601 27.3 601 13.7 601L0 601Z" fill="#de4467"></path><path d="M0 507L13.7 504C27.3 501 54.7 495 82 495.5C109.3 496 136.7 503 163.8 494.5C191 486 218 462 245.2 455.3C272.3 448.7 299.7 459.3 327 464.8C354.3 470.3 381.7 470.7 409 468.3C436.3 466 463.7 461 491 464C518.3 467 545.7 478 573 475C600.3 472 627.7 455 654.8 459.3C682 463.7 709 489.3 736.2 493.8C763.3 498.3 790.7 481.7 818 479.2C845.3 476.7 872.7 488.3 886.3 494.2L900 500L900 601L886.3 601C872.7 601 845.3 601 818 601C790.7 601 763.3 601 736.2 601C709 601 682 601 654.8 601C627.7 601 600.3 601 573 601C545.7 601 518.3 601 491 601C463.7 601 436.3 601 409 601C381.7 601 354.3 601 327 601C299.7 601 272.3 601 245.2 601C218 601 191 601 163.8 601C136.7 601 109.3 601 82 601C54.7 601 27.3 601 13.7 601L0 601Z" fill="#d23467"></path><path d="M0 527L13.7 527.8C27.3 528.7 54.7 530.3 82 534.3C109.3 538.3 136.7 544.7 163.8 543.5C191 542.3 218 533.7 245.2 525.3C272.3 517 299.7 509 327 511.3C354.3 513.7 381.7 526.3 409 535.3C436.3 544.3 463.7 549.7 491 552.5C518.3 555.3 545.7 555.7 573 554.8C600.3 554 627.7 552 654.8 549C682 546 709 542 736.2 544C763.3 546 790.7 554 818 551.2C845.3 548.3 872.7 534.7 886.3 527.8L900 521L900 601L886.3 601C872.7 601 845.3 601 818 601C790.7 601 763.3 601 736.2 601C709 601 682 601 654.8 601C627.7 601 600.3 601 573 601C545.7 601 518.3 601 491 601C463.7 601 436.3 601 409 601C381.7 601 354.3 601 327 601C299.7 601 272.3 601 245.2 601C218 601 191 601 163.8 601C136.7 601 109.3 601 82 601C54.7 601 27.3 601 13.7 601L0 601Z" fill="#c62368"></path></svg>